<svg width="18" height="18" viewBox="0 0 18 18" fill="none" xmlns="http://www.w3.org/2000/svg">
<g clip-path="url(#clip0_105_1252)">
<path d="M3.98916 10.8775L3.36261 13.2165L1.07258 13.2649C0.388194 11.9956 0 10.5432 0 8.99988C0 7.50746 0.362952 6.1001 1.00631 4.86088H1.0068L3.04557 5.23466L3.93868 7.2612C3.75175 7.80615 3.64987 8.39115 3.64987 8.99988C3.64994 9.66053 3.76961 10.2935 3.98916 10.8775Z" fill="#FBBB00"/>
<path d="M17.8427 7.3186C17.9461 7.86303 18 8.42528 18 8.99991C18 9.64425 17.9322 10.2728 17.8032 10.879C17.3651 12.9421 16.2203 14.7436 14.6344 16.0184L14.6339 16.0179L12.066 15.8869L11.7025 13.6181C12.7548 13.001 13.5772 12.0352 14.0104 10.879H9.19788V7.3186H14.0806H17.8427Z" fill="#518EF8"/>
<path d="M14.6338 16.018L14.6343 16.0185C13.0919 17.2583 11.1327 18 8.99989 18C5.57249 18 2.59262 16.0843 1.07251 13.2652L3.98909 10.8777C4.74913 12.9061 6.70589 14.3501 8.99989 14.3501C9.98592 14.3501 10.9097 14.0836 11.7023 13.6182L14.6338 16.018Z" fill="#28B446"/>
<path d="M14.7445 2.07196L11.8289 4.45892C11.0086 3.94613 10.0388 3.64991 8.99988 3.64991C6.65395 3.64991 4.6606 5.16011 3.93863 7.26128L1.00672 4.86096H1.00623C2.50409 1.97307 5.52153 0 8.99988 0C11.1836 0 13.1858 0.777864 14.7445 2.07196Z" fill="#F14336"/>
</g>
<defs>
<clipPath id="clip0_105_1252">
<rect width="18" height="18" fill="white"/>
</clipPath>
</defs>
</svg>
