<svg width="21" height="20" viewBox="0 0 21 20" fill="none" xmlns="http://www.w3.org/2000/svg">
<path fill-rule="evenodd" clip-rule="evenodd" d="M17.0928 0H3.18165C1.50025 0 0.137207 1.36304 0.137207 3.04444V16.9556C0.137207 18.637 1.50025 20 3.18165 20H17.0928C17.9002 20 18.6746 19.6792 19.2455 19.1083C19.8165 18.5374 20.1372 17.763 20.1372 16.9556V3.04444C20.1372 2.23701 19.8165 1.46264 19.2455 0.891697C18.6746 0.320753 17.9002 0 17.0928 0ZM4.13721 9H2.13721V7H4.13721V9ZM4.13721 11H2.13721V13H4.13721V11ZM18.1372 9H16.1372V7H18.1372V9ZM18.1372 11H16.1372V13H18.1372V11ZM18.1372 2.74V4H16.1372V2H17.3972C17.5935 2 17.7817 2.07796 17.9205 2.21674C18.0592 2.35552 18.1372 2.54374 18.1372 2.74ZM4.13721 2H2.87721C2.68095 2 2.49272 2.07796 2.35395 2.21674C2.21517 2.35552 2.13721 2.54374 2.13721 2.74V4H4.13721V2ZM2.13721 17.26V16H4.13721V18H2.87721C2.68095 18 2.49272 17.922 2.35395 17.7833C2.21517 17.6445 2.13721 17.4563 2.13721 17.26ZM17.3972 18C17.8059 18 18.1372 17.6687 18.1372 17.26V16H16.1372V18H17.3972Z" fill="#5A698F"/>
</svg>
