<svg width="21" height="20" viewBox="0 0 21 20" fill="none" xmlns="http://www.w3.org/2000/svg">
<path fill-rule="evenodd" clip-rule="evenodd" d="M1.13672 0H8.13672C8.73672 0 9.13672 0.4 9.13672 1V8C9.13672 8.6 8.73672 9 8.13672 9H1.13672C0.536719 9 0.136719 8.6 0.136719 8V1C0.136719 0.4 0.536719 0 1.13672 0ZM1.13672 11H8.13672C8.73672 11 9.13672 11.4 9.13672 12V19C9.13672 19.6 8.73672 20 8.13672 20H1.13672C0.536719 20 0.136719 19.6 0.136719 19V12C0.136719 11.4 0.536719 11 1.13672 11ZM19.1367 0H12.1367C11.5367 0 11.1367 0.4 11.1367 1V8C11.1367 8.6 11.5367 9 12.1367 9H19.1367C19.7367 9 20.1367 8.6 20.1367 8V1C20.1367 0.4 19.7367 0 19.1367 0ZM12.1367 11H19.1367C19.7367 11 20.1367 11.4 20.1367 12V19C20.1367 19.6 19.7367 20 19.1367 20H12.1367C11.5367 20 11.1367 19.6 11.1367 19V12C11.1367 11.4 11.5367 11 12.1367 11Z" fill="#5A698F"/>
</svg>
