<svg width="18" height="20" viewBox="0 0 18 20" fill="none" xmlns="http://www.w3.org/2000/svg">
<path d="M15.5234 0C15.7261 0 15.9199 0.0396563 16.105 0.118969C16.3958 0.233532 16.6271 0.414188 16.799 0.660939C16.9708 0.907689 17.0567 1.18088 17.0567 1.4805V18.5195C17.0567 18.8191 16.9708 19.0923 16.799 19.3391C16.6271 19.5858 16.3958 19.7665 16.105 19.881C15.9376 19.9515 15.7437 19.9868 15.5234 19.9868C15.1004 19.9868 14.7346 19.8458 14.4262 19.5638L8.59673 13.959L2.76725 19.5638C2.45 19.8546 2.08428 20 1.6701 20C1.46741 20 1.27353 19.9603 1.08847 19.881C0.797657 19.7665 0.566329 19.5858 0.394485 19.3391C0.222641 19.0923 0.136719 18.8191 0.136719 18.5195V1.4805C0.136719 1.18088 0.222641 0.907689 0.394485 0.660939C0.566329 0.414188 0.797657 0.233532 1.08847 0.118969C1.27353 0.0396563 1.46741 0 1.6701 0H15.5234Z" fill="#5A698F"/>
</svg>
